<svg width="150" height="58" viewBox="0 0 150 58" fill="none" xmlns="http://www.w3.org/2000/svg">
<g filter="url(#filter0_d_16_530)">
<path d="M109.667 17.6666C122.185 17.6666 132.333 27.8148 132.333 40.3333M109.667 29C115.926 29 121 34.0741 121 40.3333M109.667 40.3333H109.733" stroke="url(#paint0_radial_16_530)" stroke-width="5" stroke-linecap="round" stroke-linejoin="round"/>
</g>
<path d="M7.26136 43L0.602273 19.7273H5.97727L9.82955 35.8977H10.0227L14.2727 19.7273H18.875L23.1136 35.9318H23.3182L27.1705 19.7273H32.5455L25.8864 43H21.0909L16.6591 27.7841H16.4773L12.0568 43H7.26136ZM41.1676 43.3409C39.3722 43.3409 37.8267 42.9773 36.5312 42.25C35.2434 41.5152 34.2509 40.4773 33.554 39.1364C32.857 37.7879 32.5085 36.1932 32.5085 34.3523C32.5085 32.5568 32.857 30.9811 33.554 29.625C34.2509 28.2689 35.232 27.2121 36.4972 26.4545C37.7699 25.697 39.2623 25.3182 40.9744 25.3182C42.1259 25.3182 43.1979 25.5038 44.1903 25.875C45.1903 26.2386 46.0616 26.7879 46.804 27.5227C47.554 28.2576 48.1373 29.1818 48.554 30.2955C48.9706 31.4015 49.179 32.697 49.179 34.1818V35.5114H34.4403V32.5114H44.6222C44.6222 31.8144 44.4706 31.197 44.1676 30.6591C43.8646 30.1212 43.4441 29.7008 42.9062 29.3977C42.3759 29.0871 41.7585 28.9318 41.054 28.9318C40.3191 28.9318 39.6676 29.1023 39.0994 29.4432C38.5388 29.7765 38.0994 30.2273 37.7812 30.7955C37.4631 31.3561 37.3002 31.9811 37.2926 32.6705V35.5227C37.2926 36.3864 37.4517 37.1326 37.7699 37.7614C38.0956 38.3902 38.554 38.875 39.1449 39.2159C39.7358 39.5568 40.4366 39.7273 41.2472 39.7273C41.785 39.7273 42.2775 39.6515 42.7244 39.5C43.1714 39.3485 43.554 39.1212 43.8722 38.8182C44.1903 38.5152 44.4328 38.1439 44.5994 37.7045L49.0767 38C48.8494 39.0758 48.3835 40.0152 47.679 40.8182C46.982 41.6136 46.0805 42.2348 44.9744 42.6818C43.8759 43.1212 42.607 43.3409 41.1676 43.3409ZM52.429 43V19.7273H61.7472C63.4593 19.7273 64.8873 19.9811 66.0312 20.4886C67.1752 20.9962 68.035 21.7008 68.6108 22.6023C69.1866 23.4962 69.4744 24.5265 69.4744 25.6932C69.4744 26.6023 69.2926 27.4015 68.929 28.0909C68.5653 28.7727 68.0653 29.3333 67.429 29.7727C66.8002 30.2045 66.0805 30.5114 65.2699 30.6932V30.9205C66.1563 30.9583 66.9858 31.2083 67.7585 31.6705C68.5388 32.1326 69.1714 32.7803 69.6562 33.6136C70.1411 34.4394 70.3835 35.4242 70.3835 36.5682C70.3835 37.803 70.0767 38.9053 69.4631 39.875C68.857 40.8371 67.9593 41.5985 66.7699 42.1591C65.5805 42.7197 64.1146 43 62.3722 43H52.429ZM57.3494 38.9773H61.3608C62.732 38.9773 63.732 38.7159 64.3608 38.1932C64.9896 37.6629 65.304 36.9583 65.304 36.0795C65.304 35.4356 65.1487 34.8674 64.8381 34.375C64.5275 33.8826 64.0843 33.4962 63.5085 33.2159C62.9403 32.9356 62.2623 32.7955 61.4744 32.7955H57.3494V38.9773ZM57.3494 29.4659H60.9972C61.6714 29.4659 62.2699 29.3485 62.7926 29.1136C63.3229 28.8712 63.7396 28.5303 64.0426 28.0909C64.3532 27.6515 64.5085 27.125 64.5085 26.5114C64.5085 25.6705 64.2093 24.9924 63.6108 24.4773C63.0199 23.9621 62.179 23.7045 61.0881 23.7045H57.3494V29.4659ZM81.3807 43.3409C79.6155 43.3409 78.089 42.9659 76.8011 42.2159C75.5208 41.4583 74.5322 40.4053 73.8352 39.0568C73.1383 37.7008 72.7898 36.1288 72.7898 34.3409C72.7898 32.5379 73.1383 30.9621 73.8352 29.6136C74.5322 28.2576 75.5208 27.2045 76.8011 26.4545C78.089 25.697 79.6155 25.3182 81.3807 25.3182C83.1458 25.3182 84.6686 25.697 85.9489 26.4545C87.2367 27.2045 88.2292 28.2576 88.9261 29.6136C89.6231 30.9621 89.9716 32.5379 89.9716 34.3409C89.9716 36.1288 89.6231 37.7008 88.9261 39.0568C88.2292 40.4053 87.2367 41.4583 85.9489 42.2159C84.6686 42.9659 83.1458 43.3409 81.3807 43.3409ZM81.4034 39.5909C82.2064 39.5909 82.8769 39.3636 83.4148 38.9091C83.9527 38.447 84.358 37.8182 84.6307 37.0227C84.911 36.2273 85.0511 35.322 85.0511 34.3068C85.0511 33.2917 84.911 32.3864 84.6307 31.5909C84.358 30.7955 83.9527 30.1667 83.4148 29.7045C82.8769 29.2424 82.2064 29.0114 81.4034 29.0114C80.5928 29.0114 79.911 29.2424 79.358 29.7045C78.8125 30.1667 78.3996 30.7955 78.1193 31.5909C77.8466 32.3864 77.7102 33.2917 77.7102 34.3068C77.7102 35.322 77.8466 36.2273 78.1193 37.0227C78.3996 37.8182 78.8125 38.447 79.358 38.9091C79.911 39.3636 80.5928 39.5909 81.4034 39.5909ZM102.403 25.5455V29.1818H91.892V25.5455H102.403ZM94.2784 21.3636H99.1193V37.6364C99.1193 38.0833 99.1875 38.4318 99.3239 38.6818C99.4602 38.9242 99.6496 39.0947 99.892 39.1932C100.142 39.2917 100.43 39.3409 100.756 39.3409C100.983 39.3409 101.21 39.322 101.438 39.2841C101.665 39.2386 101.839 39.2045 101.96 39.1818L102.722 42.7841C102.479 42.8598 102.138 42.947 101.699 43.0455C101.259 43.1515 100.725 43.2159 100.097 43.2386C98.9299 43.2841 97.9072 43.1288 97.0284 42.7727C96.1572 42.4167 95.4792 41.8636 94.9943 41.1136C94.5095 40.3636 94.2708 39.4167 94.2784 38.2727V21.3636Z" fill="black"/>
<defs>
<filter id="filter0_d_16_530" x="89.3" y="-2.7" width="63.4" height="63.4" filterUnits="userSpaceOnUse" color-interpolation-filters="sRGB">
<feFlood flood-opacity="0" result="BackgroundImageFix"/>
<feColorMatrix in="SourceAlpha" type="matrix" values="0 0 0 0 0 0 0 0 0 0 0 0 0 0 0 0 0 0 127 0" result="hardAlpha"/>
<feOffset/>
<feGaussianBlur stdDeviation="7.35"/>
<feComposite in2="hardAlpha" operator="out"/>
<feColorMatrix type="matrix" values="0 0 0 0 0.215686 0 0 0 0 1 0 0 0 0 0.309804 0 0 0 0.35 0"/>
<feBlend mode="normal" in2="BackgroundImageFix" result="effect1_dropShadow_16_530"/>
<feBlend mode="normal" in="SourceGraphic" in2="effect1_dropShadow_16_530" result="shape"/>
</filter>
<radialGradient id="paint0_radial_16_530" cx="0" cy="0" r="1" gradientUnits="userSpaceOnUse" gradientTransform="translate(121 29) rotate(90) scale(11.3333)">
<stop stop-color="#37FF4F"/>
<stop offset="1" stop-color="#0EE026"/>
</radialGradient>
</defs>
</svg>
